<?xml version="1.0" encoding="utf-8"?>
<!-- Generator: Adobe Illustrator 23.0.1, SVG Export Plug-In . SVG Version: 6.00 Build 0)  -->
<svg version="1.1" id="Layer_1" xmlns="http://www.w3.org/2000/svg" xmlns:xlink="http://www.w3.org/1999/xlink" x="0px" y="0px"
	 viewBox="0 0 2500 1160" style="enable-background:new 0 0 2500 1160;" xml:space="preserve">
<style type="text/css">
	.st0{fill:#FFFFFF;stroke:#000000;stroke-miterlimit:10;}
	.st1{fill:#FF0084;}
	.st2{fill:#0063DC;}
</style>
<path class="st0" d="M2184.1,1160H392.6c-145.8,0-264-118.2-264-264V264c0-145.8,118.2-264,264-264h1791.5
	c145.8,0,264,118.2,264,264V896C2448.1,1041.8,2329.9,1160,2184.1,1160z"/>
<path class="st1" d="M1334.1,580.2c0,234.8,190.4,425.2,425.2,425.2c234.8,0,425.2-190.4,425.2-425.2s-190.4-425.2-425.2-425.2
	C1524.5,155.1,1334.1,345.4,1334.1,580.2L1334.1,580.2z"/>
<path class="st2" d="M392.2,579.7c0,234.8,190.4,425.2,425.2,425.2s425.2-190.4,425.2-425.2s-190.4-425.2-425.2-425.2
	S392.2,344.9,392.2,579.7z"/>
</svg>
